<svg xmlns="http://www.w3.org/2000/svg" viewBox="0 0 100 100" role="img" aria-label="狼人殺">
  <defs>
    <linearGradient id="night" x1="0" y1="0" x2="0" y2="1">
      <stop offset="0" stop-color="#1e1b4b"/>
      <stop offset="1" stop-color="#312e81"/>
    </linearGradient>
    <radialGradient id="moon" cx="42%" cy="38%" r="65%">
      <stop offset="0" stop-color="#fde68a"/>
      <stop offset="1" stop-color="#fbbf24"/>
    </radialGradient>
  </defs>
  <rect width="100" height="100" rx="22" fill="url(#night)"/>
  <g fill="#fff" opacity="0.8">
    <circle cx="16" cy="18" r="0.9"/><circle cx="83" cy="14" r="1"/>
    <circle cx="70" cy="24" r="0.7"/><circle cx="28" cy="11" r="0.7"/>
    <circle cx="90" cy="33" r="0.8"/><circle cx="10" cy="36" r="0.7"/>
  </g>
  <circle cx="50" cy="49" r="34" fill="url(#moon)"/>
  <circle cx="36" cy="36" r="4.5" fill="#fbbf24" opacity="0.45"/>
  <circle cx="62" cy="56" r="3.2" fill="#fbbf24" opacity="0.4"/>
  <polygon points="20,10 36,32 50,26 64,32 80,10 86,38 82,57 72,71 58,83 50,90 42,83 28,71 18,57 14,38"
           fill="#0a0c1e"/>
  <polygon points="40,44 43.5,47.5 40,50.6 36.5,47.5" fill="#fcd34d"/>
  <polygon points="60,44 63.5,47.5 60,50.6 56.5,47.5" fill="#fcd34d"/>
  <polygon points="50,69 46.6,63.5 53.4,63.5" fill="#fcd34d" opacity="0.9"/>
</svg>
